<svg width="500px" height="230px" viewBox="0 0 500 230" version="1.1" xmlns="http://www.w3.org/2000/svg" xmlns:xlink="http://www.w3.org/1999/xlink">
    <!-- Generator: Sketch 49.3 (51167) - http://www.bohemiancoding.com/sketch -->
    <desc>Created with Sketch.</desc>
    <defs>
        <path d="M372.960703,174.445952 L372.955636,174.44272 L325.175628,264.284264 L292.310616,253.083761 C292.280215,253.074066 292.251503,253.077298 292.219413,253.072451 C292.183945,253.062756 292.150167,253.04983 292.11301,253.046598 C292.09781,253.044982 292.082609,253.041751 292.069098,253.041751 C292.052208,253.040135 292.038697,253.043367 292.021807,253.043367 C291.976206,253.043367 291.932294,253.053061 291.886692,253.059524 C291.856292,253.062756 291.825891,253.064372 291.79549,253.074066 C291.778601,253.077298 291.761711,253.080529 291.743133,253.088608 C291.736377,253.09184 291.73131,253.090224 291.726244,253.09184 C291.71611,253.093456 291.711043,253.101534 291.702598,253.106382 C291.660375,253.120924 291.626596,253.146776 291.587751,253.167781 C291.560728,253.185554 291.532016,253.19848 291.504993,253.219485 C291.494859,253.225948 291.483037,253.227564 291.474592,253.237259 L250.864118,287.084365 L218.152799,251.340347 C218.134221,251.320958 218.110576,251.312879 218.090308,251.295106 C218.07173,251.277332 218.059908,251.256327 218.041329,251.24017 C218.032885,251.233707 218.022751,251.232091 218.014306,251.227244 C218.004173,251.219165 217.995728,251.20947 217.982216,251.203007 C217.967016,251.194928 217.950127,251.190081 217.934926,251.182002 C217.891014,251.157766 217.848791,251.141608 217.803189,251.12545 C217.774477,251.11414 217.749143,251.099598 217.72212,251.093135 C217.708609,251.091519 217.696786,251.086672 217.684964,251.085056 C217.676519,251.08344 217.668074,251.08344 217.65963,251.085056 C217.651185,251.085056 217.64274,251.085056 217.634296,251.081824 C217.583627,251.075361 217.538026,251.075361 217.485669,251.076977 C217.473847,251.078593 217.462024,251.078593 217.450202,251.076977 C217.433312,251.076977 217.418112,251.075361 217.4046,251.076977 C217.387711,251.078593 217.374199,251.078593 217.358999,251.081824 C217.355621,251.085056 217.350554,251.081824 217.345487,251.081824 C217.330287,251.085056 217.320153,251.094751 217.304953,251.099598 C217.26273,251.110908 217.222195,251.127066 217.179972,251.144839 C217.149571,251.157766 217.120859,251.165844 217.092147,251.182002 C217.083702,251.186849 217.07188,251.186849 217.065124,251.191697 C217.058368,251.194928 217.056679,251.199776 217.053301,251.201391 C217.034723,251.214317 217.019523,251.230475 217.004322,251.243401 C216.990811,251.253096 216.973921,251.256327 216.96041,251.266022 C216.940143,251.283795 216.931698,251.308032 216.91312,251.327421 C216.894541,251.345195 216.872585,251.353273 216.855696,251.374278 L201.680603,269.78757 L125.234278,190.068812 C125.215699,190.051039 125.192054,190.04296 125.173476,190.026802 C125.149831,190.005797 125.131253,189.978329 125.10423,189.960556 C125.085651,189.949245 125.062006,189.942782 125.045117,189.933087 C125.023161,189.921777 125.011338,189.902388 124.991071,189.892693 C124.986004,189.891078 124.980937,189.891078 124.975871,189.889462 C124.94547,189.876536 124.915069,189.871688 124.884668,189.863609 C124.861023,189.855531 124.840756,189.837757 124.815422,189.831294 C124.812044,189.829678 124.806977,189.831294 124.803599,189.829678 C124.791776,189.828063 124.779954,189.828063 124.768131,189.829678 C124.756309,189.829678 124.746175,189.829678 124.737731,189.828063 C124.710708,189.823215 124.683685,189.811905 124.658351,189.810289 C124.622883,189.808673 124.590793,189.818368 124.557014,189.821599 C124.545192,189.823215 124.533369,189.821599 124.523236,189.819984 C124.508035,189.818368 124.491146,189.818368 124.475945,189.819984 C124.472568,189.819984 124.46919,189.818368 124.467501,189.819984 C124.445545,189.823215 124.428655,189.837757 124.406699,189.842604 C124.386432,189.847452 124.362787,189.845836 124.34083,189.850683 C124.308741,189.863609 124.280029,189.884614 124.249628,189.900772 C124.224294,189.912082 124.195582,189.91693 124.168559,189.931472 C124.148292,189.942782 124.131402,189.962171 124.111135,189.976713 C124.094246,189.989639 124.07229,189.996102 124.057089,190.01226 C124.052022,190.015492 124.045267,190.015492 124.041889,190.020339 C124.021622,190.038112 124.013177,190.063965 123.994599,190.081738 C123.974331,190.104359 123.948997,190.120517 123.930419,190.143137 C123.915219,190.162527 123.908463,190.185147 123.894951,190.209384 C123.884818,190.225541 123.867928,190.236852 123.857795,190.254625 L25.088798,379.197679 C24.8810588,379.596773 25.0499525,380.081504 25.4688087,380.281859 C25.5853453,380.336795 25.7103266,380.361032 25.83193,380.362647 L25.83193,380.367495 L75.9021365,381.076817 L161.961887,395.54925 L161.963576,395.536324 C162.010866,395.544403 162.058157,395.56056 162.105447,395.56056 C162.154426,395.56056 162.203405,395.557329 162.254073,395.54925 C162.260829,395.547634 162.265896,395.542787 162.27434,395.542787 L162.27434,395.544403 L225.749635,383.191857 L245.344674,381.109132 L265.284256,379.619394 L265.216699,378.813126 L265.30959,379.616163 L284.720536,377.554443 L343.468497,403.072266 L343.475253,403.060955 C343.551255,403.093271 343.625568,403.127202 343.711704,403.136896 C343.74886,403.140128 343.782639,403.143359 343.814729,403.144975 L409.338703,403.25 L409.340392,403.25 C409.364037,403.25 409.387682,403.25 409.414705,403.248384 C409.500841,403.241921 409.578532,403.209606 409.656223,403.180522 L409.659601,403.191832 L472.661993,378.577224 L524.167795,378.577224 C524.390735,378.577224 524.610296,378.496435 524.775812,378.331627 C525.061242,378.048868 525.074754,377.622305 524.845059,377.310462 L524.85857,377.302383 L374.397988,174.340927 L374.392921,174.344159 C374.259495,174.166424 374.058512,174.037163 373.813616,174.006463 C373.779837,174.003232 373.746059,174 373.71228,174 C373.381248,174 373.100885,174.177734 372.960703,174.445952 Z M374.274696,176.969781 L518.214295,371.133381 L397.060136,258.98293 C397.055069,258.978082 397.044935,258.976467 397.03818,258.970003 C397.026357,258.960309 397.019601,258.950614 397.009468,258.939304 C397.001023,258.936072 396.995956,258.934457 396.990889,258.931225 C396.955422,258.905373 396.918265,258.890831 396.87942,258.871442 C396.874353,258.866594 396.864219,258.864979 396.857463,258.860131 C396.823685,258.843974 396.796662,258.819737 396.761194,258.808427 C396.744305,258.803579 396.729104,258.795501 396.713904,258.792269 C396.710526,258.792269 396.710526,258.790653 396.708837,258.790653 C396.705459,258.789037 396.700392,258.790653 396.697014,258.789037 C396.658169,258.777727 396.615946,258.782574 396.575411,258.777727 C396.526432,258.771264 396.479142,258.759954 396.428474,258.763185 C396.41834,258.763185 396.411584,258.759954 396.401451,258.759954 C396.398073,258.759954 396.394695,258.761569 396.393006,258.763185 C396.381183,258.763185 396.372739,258.763185 396.359227,258.764801 C396.359227,258.764801 396.357538,258.766417 396.357538,258.766417 C396.317004,258.771264 396.281536,258.790653 396.24438,258.800348 C396.200467,258.811658 396.156555,258.821353 396.114331,258.840742 C396.10082,258.845589 396.087308,258.847205 396.077175,258.850437 C396.06873,258.8569 396.060285,258.863363 396.050152,258.866594 C396.048463,258.86821 396.045085,258.86821 396.043396,258.869826 C396.02144,258.882752 396.007928,258.905373 395.985972,258.919915 C395.972461,258.929609 395.964016,258.937688 395.948816,258.948998 C395.923482,258.968388 395.891392,258.979698 395.867747,259.003935 C395.860991,259.010398 395.855924,259.018476 395.850857,259.026555 C395.842413,259.034634 395.832279,259.041097 395.825523,259.049176 C395.818768,259.055639 395.813701,259.065334 395.808634,259.071797 C395.779922,259.108959 395.764722,259.149354 395.741076,259.189748 C395.720809,259.226911 395.695475,259.25761 395.681964,259.294773 C395.676897,259.307699 395.673519,259.315778 395.670141,259.33032 C395.668452,259.331935 395.663385,259.335167 395.661696,259.340014 L352.570175,401.110723 L344.780801,401.480734 L374.274696,176.969781 Z M285.955148,376.315149 L372.104413,180.534165 L343.122265,401.14627 L285.955148,376.315149 Z M125.94532,193.20017 L200.623329,271.073721 L164.066302,315.439477 L149.610696,322.052815 L125.94532,193.20017 Z M124.475945,194.541258 L148.053497,322.914019 L77.4052898,378.115114 L124.475945,194.541258 Z M363.855647,195.118087 L284.26959,375.974222 L266.681007,377.845281 L363.855647,195.118087 Z M27.2016573,378.771116 L121.994898,197.427019 L75.3228313,379.451354 L27.2016573,378.771116 Z M165.707948,316.059931 L217.056679,253.736531 L244.248554,379.598389 L225.967507,381.542158 L165.707948,316.059931 Z M293.474293,255.19557 L324.403784,265.738455 L309.181401,294.361784 L293.474293,255.19557 Z M264.00742,300.773151 L291.866425,255.694842 L308.021101,295.980783 C308.058258,296.074498 308.137638,296.129434 308.201817,296.200528 L300.54418,310.601867 L264.00742,300.773151 Z M219.274253,256.014764 L280.599531,348.107072 L264.679617,378.042405 L245.93918,379.443275 L219.274253,256.014764 Z M251.977127,288.299423 L288.638868,257.740404 L262.590403,299.895789 L251.977127,288.299423 Z M224.192435,260.391879 L250.14632,288.753454 L262.002653,301.707065 L282.23611,345.025803 L281.487911,346.434753 L224.192435,260.391879 Z M397.632685,263.020734 L435.137205,323.571636 C435.143961,323.5781 435.154095,323.581331 435.16085,323.591026 L435.152406,323.594257 L471.234842,377.388019 L410.083524,401.280379 L397.632685,263.020734 Z M354.196621,401.545365 L396.02144,263.946569 L408.419922,401.634232 L354.196621,401.545365 Z M436.581246,322.731437 L400.405919,264.331121 L522.081959,376.961456 L472.955868,376.961456 L436.581246,322.731437 Z M264.228671,302.511717 L299.762203,312.072216 L283.22076,343.174133 L264.228671,302.511717 Z M149.914704,323.705745 L164.395645,317.081097 L224.025231,381.878238 L162.789466,393.797758 L149.914704,323.705745 Z M77.9457494,379.779355 L148.389595,324.738221 L161.065062,393.757363 L77.9457494,379.779355 Z" id="path-1"></path>
    </defs>
    <g id="Page-1" stroke="none" stroke-width="1" fill="none" fill-rule="evenodd">
        <g id="Artboard" transform="translate(-25.000000, -174.000000)">
            <mask id="mask-2" fill="white">
                <use xlink:href="#path-1"></use>
            </mask>
            <use id="Logo" fill="#000000" xlink:href="#path-1"></use>
        </g>
    </g>
</svg>
